<svg version="1" xmlns="http://www.w3.org/2000/svg" width="373.333" height="373.333" viewBox="0 0 280.000000 280.000000"><path d="M128.5 3.1c-7.8 4.9-10.8 8.1-26.1 28.6-23.2 31.1-24.1 33-21.4 42.7 1 3.7 9.2 15.8 13.7 20.4.7.7 1.3 1.6 1.3 1.9 0 .6-2.4-1.2-6.5-5-9.8-9-19.6-11.8-27.7-7.8-2.3 1.1-7.2 4.3-10.8 6.9-3.6 2.7-13.6 10.1-22.4 16.6-18 13.4-19.6 14.9-23.1 22.1-2 4.1-2.6 6.8-2.6 12.3-.1 14.2 3.9 18.9 33.1 40.4C61.1 200.6 63.6 202 70.5 202c7.2 0 8.2 1.1 8.8 9.7.4 6.6.8 7.8 5.4 14.5 8.3 12.4 28.1 38.9 34.6 46.5l6.2 7.2h12.9l12.9.1 6.1-6.3c3.4-3.4 8.7-9.8 11.8-14.2 3.2-4.4 10.2-14.1 15.8-21.5 12.9-17.4 14.4-20.5 13.7-27.9-.2-3.2-1.4-7.6-2.6-9.9l-2.1-4.1 4.7 2c10 4.3 16.1 3.7 25.3-2.5s43.4-31.9 45.8-34.5c1.4-1.4 3.6-5.1 4.9-8.1 2.1-4.6 2.4-6.6 2.1-13-.5-9.6-3.1-15.1-10-21.5-6.5-6-41.7-31.8-47.9-35.2-5.4-2.9-12.7-3-18.6-.3-5.1 2.3-5.3 1.6-2.2-5.5 3-6.8 2.2-13.6-2.4-20.7-3-4.8-22.4-31.4-31-42.5-1.7-2.4-6.4-6.5-10.4-9.3-6.9-4.8-7.4-5-14-5-5.8 0-7.5.5-11.8 3.1zm9.5 42.8v31.6l-12.2 12.2-12.3 12.3-16.1-16.1-16.2-16.1 23-31.3 23-31.3 5.4 3.6 5.4 3.5v31.6zM146 9c-5.6 4.3-6.3 4.4-11.5 1.1L129.6 7h18.9L146 9zm30.5 30.3l21.8 29.9-16.4 16.4-16.4 16.4-12.2-12.2L141 77.5V14.2l5.8-3.6c4.3-2.7 6-3.2 6.8-2.3.6.7 10.9 14.6 22.9 31zM142 82c2.2 1.2 6 7.1 6 9.3 0 3-3 4.7-8.4 4.7-4 0-5.7-.5-7.1-2-1.7-1.9-1.7-2.1 0-6.1 1.7-3.8 4.8-6.9 6.8-6.9.5 0 1.7.4 2.7 1zm120.8 39.4c4.5 3.3 8.2 6.3 8.2 6.7 0 .5-1.4 3.1-3.1 5.9l-3.1 5h-63.3l-12.2-12.2-12.3-12.3 16.1-16.1 16.2-16.2 22.6 16.7c12.4 9.1 26.3 19.3 30.9 22.5zM86.7 100.2l16.3 16.3-12.2 12.2L78.5 141H15.2l-1.4-2.3c-.8-1.2-2.4-3.9-3.6-5.9l-2.3-3.6 8.1-5.9c4.5-3.2 18.3-13.3 30.8-22.5S69.7 84.1 70 84c.3 0 7.8 7.3 16.7 16.2zm69.5 1.5c26.6 12.5 33.2 46.9 13.1 68.4-16.1 17.2-42.5 17.2-58.6 0-18-19.2-14.7-50.3 6.8-65.1 11.3-7.8 26.4-9.1 38.7-3.3zm115.8 39v9.7l-3-4.8c-1.7-2.7-3-5.1-2.8-5.5.7-1.5 5.3-9.1 5.6-9.1.1 0 .2 4.4.2 9.7zm-80-6.7c7.1 3.6 7.6 8.2 1.2 12.5-4.2 2.9-6.4 3.1-8.6.9-2.2-2.1-2.1-11.1.1-13.6 2-2.3 2.5-2.3 7.3.2zm-179 6.6c1 1.7.7 2.9-1.9 6.9L8 152.4v-18.9l2 2.5c1 1.4 2.4 3.4 3 4.6zm82.4-5c2.4 2.4 2.2 11.6-.4 13.9-1.9 1.7-2.1 1.7-6.1 0-7.9-3.6-8.7-8.5-2.1-13 4.2-2.9 6.4-3.1 8.6-.9zm171.7 10.1c1.3 2.1 2.9 4.8 3.6 5.9 1.3 2 1 2.5-5.4 7.1-3.7 2.7-17.8 13-31.1 22.8l-24.4 17.8-16.4-16.4-16.4-16.4 12.2-12.2 12.3-12.3h63.3l2.3 3.7zM90.7 156.2l12.3 12.3-16.1 16.1-16.2 16.2-22.6-16.7c-12.4-9.1-26.3-19.3-30.8-22.5-4.6-3.3-8.3-6.3-8.3-6.7 0-.5 1.4-3.1 3.1-5.9l3.1-5h63.3l12.2 12.2zm47.3 79v31.6l-3.7 2.3c-2.1 1.3-4.7 2.9-5.9 3.6-2 1.2-3.2-.3-24.9-29.8l-22.8-31.1 16.4-16.4 16.4-16.4 12.2 12.2 12.3 12.3v31.7zm37.3 6.7c-12.4 16.8-22.9 30.7-23.3 30.9-.4.2-3.1-1.1-5.9-2.8l-5.1-3.2v-63.3l12.2-12.2 12.3-12.3 16.1 16.1 16.2 16.1-22.5 30.7zM146.5 187c1.7 1.9 1.7 2.1 0 6.1-3.6 7.9-8.5 8.7-13 2.1-4.6-6.7-2.5-10.2 5.9-10.2 4 0 5.7.5 7.1 2zm-2 83.7l4 2.8-4.2.3c-2.3.2-6.3.2-8.9 0l-4.7-.3 3.9-2.8c2.1-1.5 4.3-2.7 4.9-2.7.6 0 2.8 1.2 5 2.7z"/><path d="M131.5 107.3c-11.4 3.8-19.1 11.5-22.6 22.8-3.4 10.8-1.8 20.9 4.8 30.6 14.1 20.9 44.6 17.8 56-5.5 2.4-4.9 2.7-6.9 2.7-14.7 0-7.8-.3-9.8-2.7-14.7-5.5-11.3-16.2-18.7-28.1-19.4-3.4-.2-7.8.2-10.1.9zm.5 27.2l-6 6.1 6 5.9 6 5.9v17.1l-12-12-12-12v-10l11.8-11.8 11.7-11.7.3 8.2.3 8.2-6.1 6.1zm36 6c0 3.8-.6 4.7-12.5 16.5L143 169.5v-16.9l6-6.1 6-6.1-6-5.9-6-5.9v-17.1l12.5 12.5c11.9 11.8 12.5 12.7 12.5 16.5zm-22.5-6c5 4.9 1.5 13.5-5.5 13.5-1.9 0-4-.9-5.5-2.5-1.6-1.5-2.5-3.6-2.5-5.5s.9-4 2.5-5.5c1.5-1.6 3.6-2.5 5.5-2.5s4 .9 5.5 2.5z"/></svg>